<svg id="Layer_1" data-name="Layer 1" xmlns="http://www.w3.org/2000/svg" viewBox="0 0 1039 1039"><defs><style>.cls-1{fill:#0b2d39;stroke:#000;stroke-miterlimit:10;stroke-width:15px;}.cls-2{fill:#fff;}</style></defs><title>Intentful Motion Logo</title><rect class="cls-1" x="7.5" y="7.5" width="1024" height="1024"/><path class="cls-2" d="M68,702.66V558.46H95v144.2Z" transform="translate(7.5 7.5)"/><path class="cls-2" d="M193.42,702.66V649.51c0-15.45-8.45-27.19-24.52-27.19-15.45,0-26,13-26,28.43v51.91H118V600.9h22.46l1.65,13.8c10.29-10.09,20.59-15.24,33.37-15.24,23.89,0,43.05,17.92,43.05,49.85v53.35Z" transform="translate(7.5 7.5)"/><path class="cls-2" d="M271.29,572.47v28.84h28v21.63H271.08v43.88c0,9.68,5.36,14.41,13.18,14.41a28.64,28.64,0,0,0,12.16-3.09l7,21.43a56.07,56.07,0,0,1-20.8,4.32c-22.05.83-36.46-11.74-36.46-37.07V622.94h-19V601.31h19V575.15Z" transform="translate(7.5 7.5)"/><path class="cls-2" d="M339.47,660.84c1.65,12.57,12.57,21.63,30.28,21.63,9.27,0,21.42-3.5,27.19-9.47L413,688.86c-10.71,11.12-28.22,16.48-43.67,16.48-35,0-55.82-21.63-55.82-54.18,0-30.9,21-53.15,54-53.15,34,0,55.2,21,51.29,62.83ZM394.68,640c-1.65-13.19-11.95-19.78-26.37-19.78-13.6,0-24.72,6.59-28.43,19.78Z" transform="translate(7.5 7.5)"/><path class="cls-2" d="M512.92,702.66V649.51c0-15.45-8.45-27.19-24.51-27.19-15.45,0-26,13-26,28.43v51.91H437.53V600.9H460l1.65,13.8c10.3-10.09,20.6-15.24,33.37-15.24,23.89,0,43,17.92,43,49.85v53.35Z" transform="translate(7.5 7.5)"/><path class="cls-2" d="M590.79,572.47v28.84h28v21.63H590.58v43.88c0,9.68,5.36,14.41,13.19,14.41a28.63,28.63,0,0,0,12.15-3.09l7,21.43a56.07,56.07,0,0,1-20.8,4.32c-22,.83-36.46-11.74-36.46-37.07V622.94H546.71V601.31h18.95V575.15Z" transform="translate(7.5 7.5)"/><path class="cls-2" d="M645.79,702.66V624.59H626.84V602.54h18.95v-6.79c0-27.19,18.33-39.76,38.73-39.76a49,49,0,0,1,26.36,8.24L701.61,583c-5.35-3.51-10.3-5.36-15.45-5.36-8.65,0-15.24,5.77-15.24,18.13v6.79h29.87v22.05H670.92v78.07Z" transform="translate(7.5 7.5)"/><path class="cls-2" d="M742,601.1v53.15c0,15.45,8.45,27.19,24.51,27.19,15.45,0,26-13,26-28.43V601.1h24.92V702.86H794.93l-1.65-13.8c-10.5,10.3-20.18,15.25-34.4,15.25-24.3,0-42-18.34-42-49.85V601.1Z" transform="translate(7.5 7.5)"/><path class="cls-2" d="M864.56,558.67v144H839.63v-144Z" transform="translate(7.5 7.5)"/><path class="cls-2" d="M193.42,845.42l-47,62.62h-5.36L95.16,845.21V950.06H68V805.87H99.28l45.11,62,45.11-62h31.11V950.06H193.42Z" transform="translate(7.5 7.5)"/><path class="cls-2" d="M345.24,899.18c0,29.26-20,52.94-52.94,52.94s-52.74-23.68-52.74-52.94c0-29,20.19-52.94,52.53-52.94S345.24,870.14,345.24,899.18Zm-80.54,0c0,15.45,9.26,29.87,27.6,29.87s27.6-14.42,27.6-29.87c0-15.24-10.71-30.07-27.6-30.07C274.17,869.11,264.7,883.94,264.7,899.18Z" transform="translate(7.5 7.5)"/><path class="cls-2" d="M395.92,819.67v28.84h28v21.63H395.71V914c0,9.68,5.35,14.42,13.18,14.42a28.65,28.65,0,0,0,12.16-3.1l7,21.43a56.07,56.07,0,0,1-20.8,4.32c-22.05.83-36.47-11.74-36.47-37.07V870.14H351.83V848.51h18.95V822.35Z" transform="translate(7.5 7.5)"/><path class="cls-2" d="M470.07,819.67c0,19.57-29.66,19.57-29.66,0S470.07,800.1,470.07,819.67Zm-27.39,28.22v102h25.13v-102Z" transform="translate(7.5 7.5)"/><path class="cls-2" d="M593.67,899.18c0,29.26-20,52.94-52.94,52.94S488,928.44,488,899.18c0-29,20.19-52.94,52.53-52.94S593.67,870.14,593.67,899.18Zm-80.55,0c0,15.45,9.27,29.87,27.61,29.87s27.6-14.42,27.6-29.87c0-15.24-10.71-30.07-27.6-30.07C522.6,869.11,513.12,883.94,513.12,899.18Z" transform="translate(7.5 7.5)"/><path class="cls-2" d="M685.75,949.86V896.71c0-15.45-8.45-27.19-24.52-27.19-15.44,0-26,13-26,28.43v51.91H610.35V848.1h22.46l1.65,13.8c10.29-10.09,20.59-15.24,33.37-15.24,23.89,0,43,17.92,43,49.85v53.35Z" transform="translate(7.5 7.5)"/></svg>